solid OpenSCAD_Model
  facet normal 1 -0 0
    outer loop
      vertex 14 1 10
      vertex 14 3 0
      vertex 14 3 10
    endloop
  endfacet
  facet normal 1 0 0
    outer loop
      vertex 14 3 0
      vertex 14 1 10
      vertex 14 1 0
    endloop
  endfacet
  facet normal 1 -0 0
    outer loop
      vertex 14 -3 10
      vertex 14 -1 0
      vertex 14 -1 10
    endloop
  endfacet
  facet normal 1 0 0
    outer loop
      vertex 14 -1 0
      vertex 14 -3 10
      vertex 14 -3 0
    endloop
  endfacet
  facet normal 0 0 1
    outer loop
      vertex 7.86602 11.6244 10
      vertex 5.19615 3 10
      vertex 9.59808 10.6244 10
    endloop
  endfacet
  facet normal 0 0 1
    outer loop
      vertex 2.86602 2.9641 10
      vertex 5.19615 3 10
      vertex 7.86602 11.6244 10
    endloop
  endfacet
  facet normal 0 0 1
    outer loop
      vertex 1.50097 0.802283 10
      vertex 4 1 10
      vertex 2.86602 2.9641 10
    endloop
  endfacet
  facet normal 0 0 1
    outer loop
      vertex 5.19615 3 10
      vertex 2.86602 2.9641 10
      vertex 4 1 10
    endloop
  endfacet
  facet normal -0 0 1
    outer loop
      vertex 5.19615 3 10
      vertex 14 1 10
      vertex 14 3 10
    endloop
  endfacet
  facet normal 0 0 1
    outer loop
      vertex 14 1 10
      vertex 5.19615 3 10
      vertex 4 1 10
    endloop
  endfacet
  facet normal -0 0 1
    outer loop
      vertex 4 -1 10
      vertex 14 -3 10
      vertex 14 -1 10
    endloop
  endfacet
  facet normal 0 -0 1
    outer loop
      vertex 1.66923 0.332029 10
      vertex 4 1 10
      vertex 1.62864 0.494043 10
    endloop
  endfacet
  facet normal -0 0 1
    outer loop
      vertex 1.69373 -0.166818 10
      vertex 4 -1 10
      vertex 1.70193 0 10
    endloop
  endfacet
  facet normal -0 0 1
    outer loop
      vertex 1.66923 -0.332029 10
      vertex 4 -1 10
      vertex 1.69373 -0.166818 10
    endloop
  endfacet
  facet normal -0 0 1
    outer loop
      vertex 1.62864 -0.494043 10
      vertex 4 -1 10
      vertex 1.66923 -0.332029 10
    endloop
  endfacet
  facet normal -0 0 1
    outer loop
      vertex 1.57238 -0.651299 10
      vertex 4 -1 10
      vertex 1.62864 -0.494043 10
    endloop
  endfacet
  facet normal -0 0 1
    outer loop
      vertex 1.50097 -0.802283 10
      vertex 4 -1 10
      vertex 1.57238 -0.651299 10
    endloop
  endfacet
  facet normal -0 0 1
    outer loop
      vertex 1.4151 -0.945541 10
      vertex 4 -1 10
      vertex 1.50097 -0.802283 10
    endloop
  endfacet
  facet normal 0 0 1
    outer loop
      vertex 1.31561 -1.07969 10
      vertex 4 -1 10
      vertex 1.4151 -0.945541 10
    endloop
  endfacet
  facet normal 0 0 1
    outer loop
      vertex 1.20345 -1.20345 10
      vertex 4 -1 10
      vertex 1.31561 -1.07969 10
    endloop
  endfacet
  facet normal 0 0 1
    outer loop
      vertex 1.07969 -1.31561 10
      vertex 4 -1 10
      vertex 1.20345 -1.20345 10
    endloop
  endfacet
  facet normal 0 0 1
    outer loop
      vertex 4 -1 10
      vertex 1.07969 -1.31561 10
      vertex 0 -3 10
    endloop
  endfacet
  facet normal 0 0 1
    outer loop
      vertex 0 -3 10
      vertex 1.07969 -1.31561 10
      vertex 0.945541 -1.4151 10
    endloop
  endfacet
  facet normal 0 0 1
    outer loop
      vertex 0 -3 10
      vertex 0.945541 -1.4151 10
      vertex 0.802283 -1.50097 10
    endloop
  endfacet
  facet normal 0 0 1
    outer loop
      vertex 0 -3 10
      vertex 0.802283 -1.50097 10
      vertex 0.651299 -1.57238 10
    endloop
  endfacet
  facet normal 0 0 1
    outer loop
      vertex 0 -3 10
      vertex 0.651299 -1.57238 10
      vertex 0.494043 -1.62864 10
    endloop
  endfacet
  facet normal 0 0 1
    outer loop
      vertex 0 -3 10
      vertex 0.494043 -1.62864 10
      vertex 0.332029 -1.66923 10
    endloop
  endfacet
  facet normal 0 0 1
    outer loop
      vertex 0 -3 10
      vertex 0.332029 -1.66923 10
      vertex 0.166818 -1.69373 10
    endloop
  endfacet
  facet normal 0 0 1
    outer loop
      vertex 0 -3 10
      vertex 0.166818 -1.69373 10
      vertex 0 -1.70193 10
    endloop
  endfacet
  facet normal 0 0 1
    outer loop
      vertex 4 -1 10
      vertex 0 -3 10
      vertex 14 -3 10
    endloop
  endfacet
  facet normal 0 0 1
    outer loop
      vertex -0.166818 -1.69373 10
      vertex 0 -3 10
      vertex 0 -1.70193 10
    endloop
  endfacet
  facet normal 0 0 1
    outer loop
      vertex -0.585271 -2.94236 10
      vertex -0.166818 -1.69373 10
      vertex -0.332029 -1.66923 10
    endloop
  endfacet
  facet normal 0 0 1
    outer loop
      vertex -0.585271 -2.94236 10
      vertex -0.332029 -1.66923 10
      vertex -0.494043 -1.62864 10
    endloop
  endfacet
  facet normal 0 0 1
    outer loop
      vertex -0.166818 -1.69373 10
      vertex -0.585271 -2.94236 10
      vertex 0 -3 10
    endloop
  endfacet
  facet normal 0 0 1
    outer loop
      vertex -1.14805 -2.77164 10
      vertex -0.494043 -1.62864 10
      vertex -0.651299 -1.57238 10
    endloop
  endfacet
  facet normal 0 0 1
    outer loop
      vertex -1.14805 -2.77164 10
      vertex -0.651299 -1.57238 10
      vertex -0.802283 -1.50097 10
    endloop
  endfacet
  facet normal 0 0 1
    outer loop
      vertex -1.66671 -2.49441 10
      vertex -0.802283 -1.50097 10
      vertex -0.945541 -1.4151 10
    endloop
  endfacet
  facet normal 0 0 1
    outer loop
      vertex -1.66671 -2.49441 10
      vertex -0.945541 -1.4151 10
      vertex -1.07969 -1.31561 10
    endloop
  endfacet
  facet normal 0 0 1
    outer loop
      vertex -0.494043 -1.62864 10
      vertex -1.14805 -2.77164 10
      vertex -0.585271 -2.94236 10
    endloop
  endfacet
  facet normal 0 0 1
    outer loop
      vertex -2.12132 -2.12132 10
      vertex -1.07969 -1.31561 10
      vertex -1.20345 -1.20345 10
    endloop
  endfacet
  facet normal 0 0 1
    outer loop
      vertex -2.12132 -2.12132 10
      vertex -1.20345 -1.20345 10
      vertex -1.31561 -1.07969 10
    endloop
  endfacet
  facet normal 0 0 1
    outer loop
      vertex -2.49441 -1.66671 10
      vertex -1.31561 -1.07969 10
      vertex -1.4151 -0.945541 10
    endloop
  endfacet
  facet normal 0 0 1
    outer loop
      vertex -2.49441 -1.66671 10
      vertex -1.4151 -0.945541 10
      vertex -1.50097 -0.802283 10
    endloop
  endfacet
  facet normal 0 0 1
    outer loop
      vertex -2.77164 -1.14805 10
      vertex -1.50097 -0.802283 10
      vertex -1.57238 -0.651299 10
    endloop
  endfacet
  facet normal 0 0 1
    outer loop
      vertex -2.77164 -1.14805 10
      vertex -1.57238 -0.651299 10
      vertex -1.62864 -0.494043 10
    endloop
  endfacet
  facet normal 0 0 1
    outer loop
      vertex -0.802283 -1.50097 10
      vertex -1.66671 -2.49441 10
      vertex -1.14805 -2.77164 10
    endloop
  endfacet
  facet normal 0 0 1
    outer loop
      vertex -2.94236 -0.585271 10
      vertex -1.62864 -0.494043 10
      vertex -1.66923 -0.332029 10
    endloop
  endfacet
  facet normal 0 0 1
    outer loop
      vertex -2.94236 -0.585271 10
      vertex -1.66923 -0.332029 10
      vertex -1.69373 -0.166818 10
    endloop
  endfacet
  facet normal -0 0 1
    outer loop
      vertex -3 0 10
      vertex -1.69373 -0.166818 10
      vertex -1.70193 0 10
    endloop
  endfacet
  facet normal 0 0 1
    outer loop
      vertex -1.07969 -1.31561 10
      vertex -2.12132 -2.12132 10
      vertex -1.66671 -2.49441 10
    endloop
  endfacet
  facet normal 0 0 1
    outer loop
      vertex 4.40192 13.6244 10
      vertex 1.13397 3.9641 10
      vertex 6.13397 12.6244 10
    endloop
  endfacet
  facet normal 0 0 1
    outer loop
      vertex 2.86602 2.9641 10
      vertex 0.945541 1.4151 10
      vertex 1.07969 1.31561 10
    endloop
  endfacet
  facet normal 0 0 1
    outer loop
      vertex 2.86602 2.9641 10
      vertex 0.802283 1.50097 10
      vertex 0.945541 1.4151 10
    endloop
  endfacet
  facet normal 0 0 1
    outer loop
      vertex 1.13397 3.9641 10
      vertex 0.651299 1.57238 10
      vertex 0.802283 1.50097 10
    endloop
  endfacet
  facet normal 0 0 1
    outer loop
      vertex 1.13397 3.9641 10
      vertex 0.494043 1.62864 10
      vertex 0.651299 1.57238 10
    endloop
  endfacet
  facet normal 0 0 1
    outer loop
      vertex 1.13397 3.9641 10
      vertex 0.332029 1.66923 10
      vertex 0.494043 1.62864 10
    endloop
  endfacet
  facet normal 0 0 1
    outer loop
      vertex -2.59808 1.5 10
      vertex 1.13397 3.9641 10
      vertex 4.40192 13.6244 10
    endloop
  endfacet
  facet normal 0 0 1
    outer loop
      vertex 1.13397 3.9641 10
      vertex 0.166818 1.69373 10
      vertex 0.332029 1.66923 10
    endloop
  endfacet
  facet normal 0 0 1
    outer loop
      vertex 1.13397 3.9641 10
      vertex 0 1.70193 10
      vertex 0.166818 1.69373 10
    endloop
  endfacet
  facet normal 0 0 1
    outer loop
      vertex 1.13397 3.9641 10
      vertex -0.166818 1.69373 10
      vertex 0 1.70193 10
    endloop
  endfacet
  facet normal 0 0 1
    outer loop
      vertex 1.13397 3.9641 10
      vertex -0.332029 1.66923 10
      vertex -0.166818 1.69373 10
    endloop
  endfacet
  facet normal 0 -0 1
    outer loop
      vertex -0.651299 1.57238 10
      vertex 1.13397 3.9641 10
      vertex -2.59808 1.5 10
    endloop
  endfacet
  facet normal 0 0 1
    outer loop
      vertex 1.13397 3.9641 10
      vertex -0.494043 1.62864 10
      vertex -0.332029 1.66923 10
    endloop
  endfacet
  facet normal 0 0 1
    outer loop
      vertex 1.13397 3.9641 10
      vertex -0.651299 1.57238 10
      vertex -0.494043 1.62864 10
    endloop
  endfacet
  facet normal 0 0 1
    outer loop
      vertex -0.651299 1.57238 10
      vertex -2.59808 1.5 10
      vertex -0.802283 1.50097 10
    endloop
  endfacet
  facet normal 0 -0 1
    outer loop
      vertex -2.58695 1.49358 10
      vertex -0.802283 1.50097 10
      vertex -2.59808 1.5 10
    endloop
  endfacet
  facet normal 0 0 1
    outer loop
      vertex -0.802283 1.50097 10
      vertex -2.58695 1.49358 10
      vertex -0.945541 1.4151 10
    endloop
  endfacet
  facet normal 0 0 1
    outer loop
      vertex -0.945541 1.4151 10
      vertex -2.58695 1.49358 10
      vertex -1.07969 1.31561 10
    endloop
  endfacet
  facet normal 0 0 1
    outer loop
      vertex -1.07969 1.31561 10
      vertex -2.58695 1.49358 10
      vertex -1.20345 1.20345 10
    endloop
  endfacet
  facet normal 0 0 1
    outer loop
      vertex -1.31561 1.07969 10
      vertex -2.58695 1.49358 10
      vertex -1.4151 0.945541 10
    endloop
  endfacet
  facet normal 0 0 1
    outer loop
      vertex -1.4151 0.945541 10
      vertex -2.58695 1.49358 10
      vertex -1.50097 0.802283 10
    endloop
  endfacet
  facet normal 0 0 1
    outer loop
      vertex -3 0 10
      vertex -1.70193 0 10
      vertex -1.69373 0.166818 10
    endloop
  endfacet
  facet normal 0 0 1
    outer loop
      vertex -2.94236 0.585271 10
      vertex -1.69373 0.166818 10
      vertex -1.66923 0.332029 10
    endloop
  endfacet
  facet normal 0 0 1
    outer loop
      vertex -1.31561 -1.07969 10
      vertex -2.49441 -1.66671 10
      vertex -2.12132 -2.12132 10
    endloop
  endfacet
  facet normal 0 0 1
    outer loop
      vertex -2.94236 0.585271 10
      vertex -1.66923 0.332029 10
      vertex -1.62864 0.494043 10
    endloop
  endfacet
  facet normal 0 0 1
    outer loop
      vertex -2.77164 1.14805 10
      vertex -1.62864 0.494043 10
      vertex -1.57238 0.651299 10
    endloop
  endfacet
  facet normal 0 0 1
    outer loop
      vertex -1.50097 0.802283 10
      vertex -2.77164 1.14805 10
      vertex -1.57238 0.651299 10
    endloop
  endfacet
  facet normal -0 0 1
    outer loop
      vertex -2.77164 1.14805 10
      vertex -1.50097 0.802283 10
      vertex -2.58695 1.49358 10
    endloop
  endfacet
  facet normal 0 0 1
    outer loop
      vertex -1.20345 1.20345 10
      vertex -2.58695 1.49358 10
      vertex -1.31561 1.07969 10
    endloop
  endfacet
  facet normal 0 0 1
    outer loop
      vertex 4 1 10
      vertex 1.70193 0 10
      vertex 4 -1 10
    endloop
  endfacet
  facet normal 0 -0 1
    outer loop
      vertex 1.70193 0 10
      vertex 4 1 10
      vertex 1.69373 0.166818 10
    endloop
  endfacet
  facet normal 0 -0 1
    outer loop
      vertex 1.69373 0.166818 10
      vertex 4 1 10
      vertex 1.66923 0.332029 10
    endloop
  endfacet
  facet normal 0 0 1
    outer loop
      vertex 4 1 10
      vertex 1.57238 0.651299 10
      vertex 1.62864 0.494043 10
    endloop
  endfacet
  facet normal 0 0 1
    outer loop
      vertex 4 1 10
      vertex 1.50097 0.802283 10
      vertex 1.57238 0.651299 10
    endloop
  endfacet
  facet normal 0 0 1
    outer loop
      vertex 2.86602 2.9641 10
      vertex 1.4151 0.945541 10
      vertex 1.50097 0.802283 10
    endloop
  endfacet
  facet normal 0 0 1
    outer loop
      vertex 2.86602 2.9641 10
      vertex 1.31561 1.07969 10
      vertex 1.4151 0.945541 10
    endloop
  endfacet
  facet normal 0 0 1
    outer loop
      vertex 2.86602 2.9641 10
      vertex 1.20345 1.20345 10
      vertex 1.31561 1.07969 10
    endloop
  endfacet
  facet normal 0 0 1
    outer loop
      vertex 0.802283 1.50097 10
      vertex 2.86602 2.9641 10
      vertex 1.13397 3.9641 10
    endloop
  endfacet
  facet normal 0 0 1
    outer loop
      vertex 2.86602 2.9641 10
      vertex 1.07969 1.31561 10
      vertex 1.20345 1.20345 10
    endloop
  endfacet
  facet normal 0 0 1
    outer loop
      vertex -1.62864 0.494043 10
      vertex -2.77164 1.14805 10
      vertex -2.94236 0.585271 10
    endloop
  endfacet
  facet normal 0 0 1
    outer loop
      vertex -1.50097 -0.802283 10
      vertex -2.77164 -1.14805 10
      vertex -2.49441 -1.66671 10
    endloop
  endfacet
  facet normal 0 0 1
    outer loop
      vertex -1.69373 0.166818 10
      vertex -2.94236 0.585271 10
      vertex -3 0 10
    endloop
  endfacet
  facet normal 0 0 1
    outer loop
      vertex -1.62864 -0.494043 10
      vertex -2.94236 -0.585271 10
      vertex -2.77164 -1.14805 10
    endloop
  endfacet
  facet normal 0 0 1
    outer loop
      vertex -1.69373 -0.166818 10
      vertex -3 0 10
      vertex -2.94236 -0.585271 10
    endloop
  endfacet
  facet normal 0 0 -1
    outer loop
      vertex 14 -3 0
      vertex 4 -1 0
      vertex 14 -1 0
    endloop
  endfacet
  facet normal 0 0 -1
    outer loop
      vertex 1.70193 0 0
      vertex 4 1 0
      vertex 4 -1 0
    endloop
  endfacet
  facet normal 0 0 -1
    outer loop
      vertex 4 1 0
      vertex 1.70193 0 0
      vertex 1.69373 0.166818 0
    endloop
  endfacet
  facet normal 0 0 -1
    outer loop
      vertex 4 -1 0
      vertex 1.69373 -0.166818 0
      vertex 1.70193 0 0
    endloop
  endfacet
  facet normal 0 0 -1
    outer loop
      vertex 4 -1 0
      vertex 1.66923 -0.332029 0
      vertex 1.69373 -0.166818 0
    endloop
  endfacet
  facet normal 0 0 -1
    outer loop
      vertex 4 -1 0
      vertex 1.62864 -0.494043 0
      vertex 1.66923 -0.332029 0
    endloop
  endfacet
  facet normal 0 0 -1
    outer loop
      vertex 4 -1 0
      vertex 1.57238 -0.651299 0
      vertex 1.62864 -0.494043 0
    endloop
  endfacet
  facet normal 0 0 -1
    outer loop
      vertex 0 -3 0
      vertex 4 -1 0
      vertex 14 -3 0
    endloop
  endfacet
  facet normal 0 0 -1
    outer loop
      vertex 4 -1 0
      vertex 1.50097 -0.802283 0
      vertex 1.57238 -0.651299 0
    endloop
  endfacet
  facet normal 0 0 -1
    outer loop
      vertex 4 -1 0
      vertex 1.4151 -0.945541 0
      vertex 1.50097 -0.802283 0
    endloop
  endfacet
  facet normal -0 0 -1
    outer loop
      vertex 4 -1 0
      vertex 1.31561 -1.07969 0
      vertex 1.4151 -0.945541 0
    endloop
  endfacet
  facet normal 0 0 -1
    outer loop
      vertex 4 -1 0
      vertex 1.20345 -1.20345 0
      vertex 1.31561 -1.07969 0
    endloop
  endfacet
  facet normal 0 -0 -1
    outer loop
      vertex 1.07969 -1.31561 0
      vertex 4 -1 0
      vertex 0 -3 0
    endloop
  endfacet
  facet normal 0 0 -1
    outer loop
      vertex 4 -1 0
      vertex 1.07969 -1.31561 0
      vertex 1.20345 -1.20345 0
    endloop
  endfacet
  facet normal 0 0 -1
    outer loop
      vertex 1.07969 -1.31561 0
      vertex 0 -3 0
      vertex 0.945541 -1.4151 0
    endloop
  endfacet
  facet normal 0 0 -1
    outer loop
      vertex 0.945541 -1.4151 0
      vertex 0 -3 0
      vertex 0.802283 -1.50097 0
    endloop
  endfacet
  facet normal 0 0 -1
    outer loop
      vertex 0.802283 -1.50097 0
      vertex 0 -3 0
      vertex 0.651299 -1.57238 0
    endloop
  endfacet
  facet normal 0 0 -1
    outer loop
      vertex 0.651299 -1.57238 0
      vertex 0 -3 0
      vertex 0.494043 -1.62864 0
    endloop
  endfacet
  facet normal 0 0 -1
    outer loop
      vertex 0.494043 -1.62864 0
      vertex 0 -3 0
      vertex 0.332029 -1.66923 0
    endloop
  endfacet
  facet normal 0 0 -1
    outer loop
      vertex 0.332029 -1.66923 0
      vertex 0 -3 0
      vertex 0.166818 -1.69373 0
    endloop
  endfacet
  facet normal 0 0 -1
    outer loop
      vertex 0 -3 0
      vertex 0 -1.70193 0
      vertex 0.166818 -1.69373 0
    endloop
  endfacet
  facet normal 0 0 -1
    outer loop
      vertex 0 -3 0
      vertex -0.166818 -1.69373 0
      vertex 0 -1.70193 0
    endloop
  endfacet
  facet normal 0 0 -1
    outer loop
      vertex -0.585271 -2.94236 0
      vertex -0.166818 -1.69373 0
      vertex 0 -3 0
    endloop
  endfacet
  facet normal -0 0 -1
    outer loop
      vertex -0.166818 -1.69373 0
      vertex -0.585271 -2.94236 0
      vertex -0.332029 -1.66923 0
    endloop
  endfacet
  facet normal -0 0 -1
    outer loop
      vertex -0.332029 -1.66923 0
      vertex -0.585271 -2.94236 0
      vertex -0.494043 -1.62864 0
    endloop
  endfacet
  facet normal 0 0 -1
    outer loop
      vertex -1.14805 -2.77164 0
      vertex -0.494043 -1.62864 0
      vertex -0.585271 -2.94236 0
    endloop
  endfacet
  facet normal -0 0 -1
    outer loop
      vertex -0.494043 -1.62864 0
      vertex -1.14805 -2.77164 0
      vertex -0.651299 -1.57238 0
    endloop
  endfacet
  facet normal -0 0 -1
    outer loop
      vertex -0.651299 -1.57238 0
      vertex -1.14805 -2.77164 0
      vertex -0.802283 -1.50097 0
    endloop
  endfacet
  facet normal 0 0 -1
    outer loop
      vertex -1.66671 -2.49441 0
      vertex -0.802283 -1.50097 0
      vertex -1.14805 -2.77164 0
    endloop
  endfacet
  facet normal -0 0 -1
    outer loop
      vertex -0.802283 -1.50097 0
      vertex -1.66671 -2.49441 0
      vertex -0.945541 -1.4151 0
    endloop
  endfacet
  facet normal -0 0 -1
    outer loop
      vertex -0.945541 -1.4151 0
      vertex -1.66671 -2.49441 0
      vertex -1.07969 -1.31561 0
    endloop
  endfacet
  facet normal 0 0 -1
    outer loop
      vertex -2.12132 -2.12132 0
      vertex -1.07969 -1.31561 0
      vertex -1.66671 -2.49441 0
    endloop
  endfacet
  facet normal -0 0 -1
    outer loop
      vertex -1.07969 -1.31561 0
      vertex -2.12132 -2.12132 0
      vertex -1.20345 -1.20345 0
    endloop
  endfacet
  facet normal -0 0 -1
    outer loop
      vertex -1.20345 -1.20345 0
      vertex -2.12132 -2.12132 0
      vertex -1.31561 -1.07969 0
    endloop
  endfacet
  facet normal 0 0 -1
    outer loop
      vertex -2.49441 -1.66671 0
      vertex -1.31561 -1.07969 0
      vertex -2.12132 -2.12132 0
    endloop
  endfacet
  facet normal -0 0 -1
    outer loop
      vertex -1.31561 -1.07969 0
      vertex -2.49441 -1.66671 0
      vertex -1.4151 -0.945541 0
    endloop
  endfacet
  facet normal -0 0 -1
    outer loop
      vertex -1.4151 -0.945541 0
      vertex -2.49441 -1.66671 0
      vertex -1.50097 -0.802283 0
    endloop
  endfacet
  facet normal 0 0 -1
    outer loop
      vertex -2.77164 -1.14805 0
      vertex -1.50097 -0.802283 0
      vertex -2.49441 -1.66671 0
    endloop
  endfacet
  facet normal -0 0 -1
    outer loop
      vertex -1.50097 -0.802283 0
      vertex -2.77164 -1.14805 0
      vertex -1.57238 -0.651299 0
    endloop
  endfacet
  facet normal -0 0 -1
    outer loop
      vertex -1.57238 -0.651299 0
      vertex -2.77164 -1.14805 0
      vertex -1.62864 -0.494043 0
    endloop
  endfacet
  facet normal 0 0 -1
    outer loop
      vertex -2.94236 -0.585271 0
      vertex -1.62864 -0.494043 0
      vertex -2.77164 -1.14805 0
    endloop
  endfacet
  facet normal 0 0 -1
    outer loop
      vertex 4 1 0
      vertex 1.69373 0.166818 0
      vertex 1.66923 0.332029 0
    endloop
  endfacet
  facet normal 0 0 -1
    outer loop
      vertex 4 1 0
      vertex 1.66923 0.332029 0
      vertex 1.62864 0.494043 0
    endloop
  endfacet
  facet normal 0 0 -1
    outer loop
      vertex 1.57238 0.651299 0
      vertex 4 1 0
      vertex 1.62864 0.494043 0
    endloop
  endfacet
  facet normal 0 0 -1
    outer loop
      vertex 1.50097 0.802283 0
      vertex 4 1 0
      vertex 1.57238 0.651299 0
    endloop
  endfacet
  facet normal -0 0 -1
    outer loop
      vertex 4 1 0
      vertex 1.50097 0.802283 0
      vertex 2.86602 2.9641 0
    endloop
  endfacet
  facet normal 0 0 -1
    outer loop
      vertex 1.4151 0.945541 0
      vertex 2.86602 2.9641 0
      vertex 1.50097 0.802283 0
    endloop
  endfacet
  facet normal 0 0 -1
    outer loop
      vertex 1.31561 1.07969 0
      vertex 2.86602 2.9641 0
      vertex 1.4151 0.945541 0
    endloop
  endfacet
  facet normal 0 0 -1
    outer loop
      vertex 1.20345 1.20345 0
      vertex 2.86602 2.9641 0
      vertex 1.31561 1.07969 0
    endloop
  endfacet
  facet normal 0 0 -1
    outer loop
      vertex 1.07969 1.31561 0
      vertex 2.86602 2.9641 0
      vertex 1.20345 1.20345 0
    endloop
  endfacet
  facet normal 0 0 -1
    outer loop
      vertex 0.945541 1.4151 0
      vertex 2.86602 2.9641 0
      vertex 1.07969 1.31561 0
    endloop
  endfacet
  facet normal 0 0 -1
    outer loop
      vertex 14 1 0
      vertex 5.19615 3 0
      vertex 14 3 0
    endloop
  endfacet
  facet normal 0 -0 -1
    outer loop
      vertex 5.19615 3 0
      vertex 14 1 0
      vertex 4 1 0
    endloop
  endfacet
  facet normal 0 0 -1
    outer loop
      vertex 5.19615 3 0
      vertex 7.86602 11.6244 0
      vertex 9.59808 10.6244 0
    endloop
  endfacet
  facet normal 0 0 -1
    outer loop
      vertex 2.86602 2.9641 0
      vertex 5.19615 3 0
      vertex 4 1 0
    endloop
  endfacet
  facet normal -0 0 -1
    outer loop
      vertex 5.19615 3 0
      vertex 2.86602 2.9641 0
      vertex 7.86602 11.6244 0
    endloop
  endfacet
  facet normal 0 0 -1
    outer loop
      vertex 1.13397 3.9641 0
      vertex 4.40192 13.6244 0
      vertex 6.13397 12.6244 0
    endloop
  endfacet
  facet normal 0 0 -1
    outer loop
      vertex 0.802283 1.50097 0
      vertex 2.86602 2.9641 0
      vertex 0.945541 1.4151 0
    endloop
  endfacet
  facet normal -0 0 -1
    outer loop
      vertex 2.86602 2.9641 0
      vertex 0.802283 1.50097 0
      vertex 1.13397 3.9641 0
    endloop
  endfacet
  facet normal 0 0 -1
    outer loop
      vertex 0.651299 1.57238 0
      vertex 1.13397 3.9641 0
      vertex 0.802283 1.50097 0
    endloop
  endfacet
  facet normal 0 0 -1
    outer loop
      vertex 0.494043 1.62864 0
      vertex 1.13397 3.9641 0
      vertex 0.651299 1.57238 0
    endloop
  endfacet
  facet normal 0 0 -1
    outer loop
      vertex 0.332029 1.66923 0
      vertex 1.13397 3.9641 0
      vertex 0.494043 1.62864 0
    endloop
  endfacet
  facet normal 0 0 -1
    outer loop
      vertex 0.166818 1.69373 0
      vertex 1.13397 3.9641 0
      vertex 0.332029 1.66923 0
    endloop
  endfacet
  facet normal 0 0 -1
    outer loop
      vertex 0 1.70193 0
      vertex 1.13397 3.9641 0
      vertex 0.166818 1.69373 0
    endloop
  endfacet
  facet normal 0 0 -1
    outer loop
      vertex -0.166818 1.69373 0
      vertex 1.13397 3.9641 0
      vertex 0 1.70193 0
    endloop
  endfacet
  facet normal 0 0 -1
    outer loop
      vertex -0.332029 1.66923 0
      vertex 1.13397 3.9641 0
      vertex -0.166818 1.69373 0
    endloop
  endfacet
  facet normal 0 0 -1
    outer loop
      vertex -0.494043 1.62864 0
      vertex 1.13397 3.9641 0
      vertex -0.332029 1.66923 0
    endloop
  endfacet
  facet normal 0 0 -1
    outer loop
      vertex -0.651299 1.57238 0
      vertex 1.13397 3.9641 0
      vertex -0.494043 1.62864 0
    endloop
  endfacet
  facet normal 0 0 -1
    outer loop
      vertex 1.13397 3.9641 0
      vertex -0.651299 1.57238 0
      vertex -2.59808 1.5 0
    endloop
  endfacet
  facet normal 0 0 -1
    outer loop
      vertex -2.59808 1.5 0
      vertex -0.651299 1.57238 0
      vertex -0.802283 1.50097 0
    endloop
  endfacet
  facet normal 0 0 -1
    outer loop
      vertex -2.58695 1.49358 0
      vertex -0.802283 1.50097 0
      vertex -0.945541 1.4151 0
    endloop
  endfacet
  facet normal 0 0 -1
    outer loop
      vertex -2.58695 1.49358 0
      vertex -0.945541 1.4151 0
      vertex -1.07969 1.31561 0
    endloop
  endfacet
  facet normal 0 0 -1
    outer loop
      vertex -2.58695 1.49358 0
      vertex -1.07969 1.31561 0
      vertex -1.20345 1.20345 0
    endloop
  endfacet
  facet normal 0 0 -1
    outer loop
      vertex -2.58695 1.49358 0
      vertex -1.20345 1.20345 0
      vertex -1.31561 1.07969 0
    endloop
  endfacet
  facet normal 0 0 -1
    outer loop
      vertex -2.58695 1.49358 0
      vertex -1.31561 1.07969 0
      vertex -1.4151 0.945541 0
    endloop
  endfacet
  facet normal 0 0 -1
    outer loop
      vertex -2.58695 1.49358 0
      vertex -1.4151 0.945541 0
      vertex -1.50097 0.802283 0
    endloop
  endfacet
  facet normal 0 0 -1
    outer loop
      vertex -2.77164 1.14805 0
      vertex -1.50097 0.802283 0
      vertex -1.57238 0.651299 0
    endloop
  endfacet
  facet normal -0 0 -1
    outer loop
      vertex -1.62864 -0.494043 0
      vertex -2.94236 -0.585271 0
      vertex -1.66923 -0.332029 0
    endloop
  endfacet
  facet normal -0 0 -1
    outer loop
      vertex -1.66923 -0.332029 0
      vertex -2.94236 -0.585271 0
      vertex -1.69373 -0.166818 0
    endloop
  endfacet
  facet normal 0 0 -1
    outer loop
      vertex -3 0 0
      vertex -1.69373 -0.166818 0
      vertex -2.94236 -0.585271 0
    endloop
  endfacet
  facet normal 0 0 -1
    outer loop
      vertex -1.69373 -0.166818 0
      vertex -3 0 0
      vertex -1.70193 0 0
    endloop
  endfacet
  facet normal 0 0 -1
    outer loop
      vertex -1.70193 0 0
      vertex -3 0 0
      vertex -1.69373 0.166818 0
    endloop
  endfacet
  facet normal 0 -0 -1
    outer loop
      vertex -2.94236 0.585271 0
      vertex -1.69373 0.166818 0
      vertex -3 0 0
    endloop
  endfacet
  facet normal 0 0 -1
    outer loop
      vertex -0.802283 1.50097 0
      vertex -2.58695 1.49358 0
      vertex -2.59808 1.5 0
    endloop
  endfacet
  facet normal -0 0 -1
    outer loop
      vertex 1.13397 3.9641 0
      vertex -2.59808 1.5 0
      vertex 4.40192 13.6244 0
    endloop
  endfacet
  facet normal 0 0 -1
    outer loop
      vertex -1.69373 0.166818 0
      vertex -2.94236 0.585271 0
      vertex -1.66923 0.332029 0
    endloop
  endfacet
  facet normal 0 0 -1
    outer loop
      vertex -1.66923 0.332029 0
      vertex -2.94236 0.585271 0
      vertex -1.62864 0.494043 0
    endloop
  endfacet
  facet normal 0 0 -1
    outer loop
      vertex -1.62864 0.494043 0
      vertex -2.77164 1.14805 0
      vertex -1.57238 0.651299 0
    endloop
  endfacet
  facet normal 0 0 -1
    outer loop
      vertex -1.50097 0.802283 0
      vertex -2.77164 1.14805 0
      vertex -2.58695 1.49358 0
    endloop
  endfacet
  facet normal 0 -0 -1
    outer loop
      vertex -2.77164 1.14805 0
      vertex -1.62864 0.494043 0
      vertex -2.94236 0.585271 0
    endloop
  endfacet
  facet normal 1 -0 0
    outer loop
      vertex 4 -1 10
      vertex 4 1 0
      vertex 4 1 10
    endloop
  endfacet
  facet normal 1 0 0
    outer loop
      vertex 4 1 0
      vertex 4 -1 10
      vertex 4 -1 0
    endloop
  endfacet
  facet normal 0 -1 0
    outer loop
      vertex 4 1 0
      vertex 14 1 10
      vertex 4 1 10
    endloop
  endfacet
  facet normal 0 -1 -0
    outer loop
      vertex 14 1 10
      vertex 4 1 0
      vertex 14 1 0
    endloop
  endfacet
  facet normal 0 1 -0
    outer loop
      vertex 14 -1 0
      vertex 4 -1 10
      vertex 14 -1 10
    endloop
  endfacet
  facet normal 0 1 0
    outer loop
      vertex 4 -1 10
      vertex 14 -1 0
      vertex 4 -1 0
    endloop
  endfacet
  facet normal 0.5 0.866025 -0
    outer loop
      vertex 2.86602 2.9641 0
      vertex 1.13397 3.9641 10
      vertex 2.86602 2.9641 10
    endloop
  endfacet
  facet normal 0.5 0.866025 0
    outer loop
      vertex 1.13397 3.9641 10
      vertex 2.86602 2.9641 0
      vertex 1.13397 3.9641 0
    endloop
  endfacet
  facet normal 0.866027 -0.499998 0
    outer loop
      vertex 1.13397 3.9641 10
      vertex 6.13397 12.6244 0
      vertex 6.13397 12.6244 10
    endloop
  endfacet
  facet normal 0.866027 -0.499998 0
    outer loop
      vertex 6.13397 12.6244 0
      vertex 1.13397 3.9641 10
      vertex 1.13397 3.9641 0
    endloop
  endfacet
  facet normal -0.866027 0.499998 0
    outer loop
      vertex 2.86602 2.9641 0
      vertex 7.86602 11.6244 10
      vertex 7.86602 11.6244 0
    endloop
  endfacet
  facet normal -0.866027 0.499998 0
    outer loop
      vertex 7.86602 11.6244 10
      vertex 2.86602 2.9641 0
      vertex 2.86602 2.9641 10
    endloop
  endfacet
  facet normal 0.5 0.866025 -0
    outer loop
      vertex 6.13397 12.6244 0
      vertex 4.40192 13.6244 10
      vertex 6.13397 12.6244 10
    endloop
  endfacet
  facet normal 0.5 0.866025 0
    outer loop
      vertex 4.40192 13.6244 10
      vertex 6.13397 12.6244 0
      vertex 4.40192 13.6244 0
    endloop
  endfacet
  facet normal 0.499998 0.866027 -0
    outer loop
      vertex 9.59808 10.6244 0
      vertex 7.86602 11.6244 10
      vertex 9.59808 10.6244 10
    endloop
  endfacet
  facet normal 0.499998 0.866027 0
    outer loop
      vertex 7.86602 11.6244 10
      vertex 9.59808 10.6244 0
      vertex 7.86602 11.6244 0
    endloop
  endfacet
  facet normal 0 1 -0
    outer loop
      vertex 14 3 0
      vertex 5.19615 3 10
      vertex 14 3 10
    endloop
  endfacet
  facet normal 0 1 0
    outer loop
      vertex 5.19615 3 10
      vertex 14 3 0
      vertex 5.19615 3 0
    endloop
  endfacet
  facet normal 0 -1 0
    outer loop
      vertex 0 -3 0
      vertex 14 -3 10
      vertex 0 -3 10
    endloop
  endfacet
  facet normal 0 -1 -0
    outer loop
      vertex 14 -3 10
      vertex 0 -3 0
      vertex 14 -3 0
    endloop
  endfacet
  facet normal -0.499655 -0.866224 0
    outer loop
      vertex -2.59808 1.5 0
      vertex -2.58695 1.49358 10
      vertex -2.59808 1.5 10
    endloop
  endfacet
  facet normal -0.499655 -0.866224 -0
    outer loop
      vertex -2.58695 1.49358 10
      vertex -2.59808 1.5 0
      vertex -2.58695 1.49358 0
    endloop
  endfacet
  facet normal -0.866026 0.499999 0
    outer loop
      vertex -2.59808 1.5 0
      vertex 4.40192 13.6244 10
      vertex 4.40192 13.6244 0
    endloop
  endfacet
  facet normal -0.866026 0.499999 0
    outer loop
      vertex 4.40192 13.6244 10
      vertex -2.59808 1.5 0
      vertex -2.59808 1.5 10
    endloop
  endfacet
  facet normal 0.866026 -0.499998 0
    outer loop
      vertex 5.19615 3 10
      vertex 9.59808 10.6244 0
      vertex 9.59808 10.6244 10
    endloop
  endfacet
  facet normal 0.866026 -0.499998 0
    outer loop
      vertex 9.59808 10.6244 0
      vertex 5.19615 3 10
      vertex 5.19615 3 0
    endloop
  endfacet
  facet normal -0.881921 -0.471397 0
    outer loop
      vertex -2.49441 -1.66671 0
      vertex -2.77164 -1.14805 10
      vertex -2.77164 -1.14805 0
    endloop
  endfacet
  facet normal -0.881921 -0.471397 0
    outer loop
      vertex -2.77164 -1.14805 10
      vertex -2.49441 -1.66671 0
      vertex -2.49441 -1.66671 10
    endloop
  endfacet
  facet normal -0.0980101 -0.995185 0
    outer loop
      vertex -0.585271 -2.94236 0
      vertex 0 -3 10
      vertex -0.585271 -2.94236 10
    endloop
  endfacet
  facet normal -0.0980101 -0.995185 -0
    outer loop
      vertex 0 -3 10
      vertex -0.585271 -2.94236 0
      vertex 0 -3 0
    endloop
  endfacet
  facet normal -0.881921 0.471397 0
    outer loop
      vertex -2.77164 1.14805 0
      vertex -2.58695 1.49358 10
      vertex -2.58695 1.49358 0
    endloop
  endfacet
  facet normal -0.881921 0.471397 0
    outer loop
      vertex -2.58695 1.49358 10
      vertex -2.77164 1.14805 0
      vertex -2.77164 1.14805 10
    endloop
  endfacet
  facet normal -0.290289 -0.956939 0
    outer loop
      vertex -1.14805 -2.77164 0
      vertex -0.585271 -2.94236 10
      vertex -1.14805 -2.77164 10
    endloop
  endfacet
  facet normal -0.290289 -0.956939 -0
    outer loop
      vertex -0.585271 -2.94236 10
      vertex -1.14805 -2.77164 0
      vertex -0.585271 -2.94236 0
    endloop
  endfacet
  facet normal -0.995185 0.0980101 0
    outer loop
      vertex -3 0 0
      vertex -2.94236 0.585271 10
      vertex -2.94236 0.585271 0
    endloop
  endfacet
  facet normal -0.995185 0.0980101 0
    outer loop
      vertex -2.94236 0.585271 10
      vertex -3 0 0
      vertex -3 0 10
    endloop
  endfacet
  facet normal -0.634395 -0.773009 0
    outer loop
      vertex -2.12132 -2.12132 0
      vertex -1.66671 -2.49441 10
      vertex -2.12132 -2.12132 10
    endloop
  endfacet
  facet normal -0.634395 -0.773009 -0
    outer loop
      vertex -1.66671 -2.49441 10
      vertex -2.12132 -2.12132 0
      vertex -1.66671 -2.49441 0
    endloop
  endfacet
  facet normal -0.956939 -0.290289 0
    outer loop
      vertex -2.77164 -1.14805 0
      vertex -2.94236 -0.585271 10
      vertex -2.94236 -0.585271 0
    endloop
  endfacet
  facet normal -0.956939 -0.290289 0
    outer loop
      vertex -2.94236 -0.585271 10
      vertex -2.77164 -1.14805 0
      vertex -2.77164 -1.14805 10
    endloop
  endfacet
  facet normal -0.995185 -0.0980101 0
    outer loop
      vertex -2.94236 -0.585271 0
      vertex -3 0 10
      vertex -3 0 0
    endloop
  endfacet
  facet normal -0.995185 -0.0980101 0
    outer loop
      vertex -3 0 10
      vertex -2.94236 -0.585271 0
      vertex -2.94236 -0.585271 10
    endloop
  endfacet
  facet normal -0.773009 -0.634395 0
    outer loop
      vertex -2.12132 -2.12132 0
      vertex -2.49441 -1.66671 10
      vertex -2.49441 -1.66671 0
    endloop
  endfacet
  facet normal -0.773009 -0.634395 0
    outer loop
      vertex -2.49441 -1.66671 10
      vertex -2.12132 -2.12132 0
      vertex -2.12132 -2.12132 10
    endloop
  endfacet
  facet normal -0.956939 0.290289 0
    outer loop
      vertex -2.94236 0.585271 0
      vertex -2.77164 1.14805 10
      vertex -2.77164 1.14805 0
    endloop
  endfacet
  facet normal -0.956939 0.290289 0
    outer loop
      vertex -2.77164 1.14805 10
      vertex -2.94236 0.585271 0
      vertex -2.94236 0.585271 10
    endloop
  endfacet
  facet normal -0.471397 -0.881921 0
    outer loop
      vertex -1.66671 -2.49441 0
      vertex -1.14805 -2.77164 10
      vertex -1.66671 -2.49441 10
    endloop
  endfacet
  facet normal -0.471397 -0.881921 -0
    outer loop
      vertex -1.14805 -2.77164 10
      vertex -1.66671 -2.49441 0
      vertex -1.14805 -2.77164 0
    endloop
  endfacet
  facet normal 0.90399 -0.427555 0
    outer loop
      vertex -1.57238 0.651299 10
      vertex -1.50097 0.802283 0
      vertex -1.50097 0.802283 10
    endloop
  endfacet
  facet normal 0.90399 -0.427555 0
    outer loop
      vertex -1.50097 0.802283 0
      vertex -1.57238 0.651299 10
      vertex -1.57238 0.651299 0
    endloop
  endfacet
  facet normal 0.970021 0.243023 0
    outer loop
      vertex -1.62864 -0.494043 10
      vertex -1.66923 -0.332029 0
      vertex -1.66923 -0.332029 10
    endloop
  endfacet
  facet normal 0.970021 0.243023 0
    outer loop
      vertex -1.66923 -0.332029 0
      vertex -1.62864 -0.494043 10
      vertex -1.62864 -0.494043 0
    endloop
  endfacet
  facet normal -0.941558 -0.336852 0
    outer loop
      vertex 1.62864 0.494043 0
      vertex 1.57238 0.651299 10
      vertex 1.57238 0.651299 0
    endloop
  endfacet
  facet normal -0.941558 -0.336852 0
    outer loop
      vertex 1.57238 0.651299 10
      vertex 1.62864 0.494043 0
      vertex 1.62864 0.494043 10
    endloop
  endfacet
  facet normal 0.857717 0.514122 0
    outer loop
      vertex -1.4151 -0.945541 10
      vertex -1.50097 -0.802283 0
      vertex -1.50097 -0.802283 10
    endloop
  endfacet
  facet normal 0.857717 0.514122 0
    outer loop
      vertex -1.50097 -0.802283 0
      vertex -1.4151 -0.945541 10
      vertex -1.4151 -0.945541 0
    endloop
  endfacet
  facet normal -0.514122 0.857717 0
    outer loop
      vertex 0.945541 -1.4151 0
      vertex 0.802283 -1.50097 10
      vertex 0.945541 -1.4151 10
    endloop
  endfacet
  facet normal -0.514122 0.857717 0
    outer loop
      vertex 0.802283 -1.50097 10
      vertex 0.945541 -1.4151 0
      vertex 0.802283 -1.50097 0
    endloop
  endfacet
  facet normal 0.989182 -0.146691 0
    outer loop
      vertex -1.69373 0.166818 10
      vertex -1.66923 0.332029 0
      vertex -1.66923 0.332029 10
    endloop
  endfacet
  facet normal 0.989182 -0.146691 0
    outer loop
      vertex -1.66923 0.332029 0
      vertex -1.69373 0.166818 10
      vertex -1.69373 0.166818 0
    endloop
  endfacet
  facet normal 0.90399 0.427555 0
    outer loop
      vertex -1.50097 -0.802283 10
      vertex -1.57238 -0.651299 0
      vertex -1.57238 -0.651299 10
    endloop
  endfacet
  facet normal 0.90399 0.427555 0
    outer loop
      vertex -1.57238 -0.651299 0
      vertex -1.50097 -0.802283 10
      vertex -1.50097 -0.802283 0
    endloop
  endfacet
  facet normal -0.427555 -0.90399 0
    outer loop
      vertex 0.651299 1.57238 0
      vertex 0.802283 1.50097 10
      vertex 0.651299 1.57238 10
    endloop
  endfacet
  facet normal -0.427555 -0.90399 -0
    outer loop
      vertex 0.802283 1.50097 10
      vertex 0.651299 1.57238 0
      vertex 0.802283 1.50097 0
    endloop
  endfacet
  facet normal -0.989182 -0.146691 0
    outer loop
      vertex 1.69373 0.166818 0
      vertex 1.66923 0.332029 10
      vertex 1.66923 0.332029 0
    endloop
  endfacet
  facet normal -0.989182 -0.146691 0
    outer loop
      vertex 1.66923 0.332029 10
      vertex 1.69373 0.166818 0
      vertex 1.69373 0.166818 10
    endloop
  endfacet
  facet normal -0.857717 0.514122 0
    outer loop
      vertex 1.4151 -0.945541 0
      vertex 1.50097 -0.802283 10
      vertex 1.50097 -0.802283 0
    endloop
  endfacet
  facet normal -0.857717 0.514122 0
    outer loop
      vertex 1.50097 -0.802283 10
      vertex 1.4151 -0.945541 0
      vertex 1.4151 -0.945541 10
    endloop
  endfacet
  facet normal 0.146691 0.989182 -0
    outer loop
      vertex -0.166818 -1.69373 0
      vertex -0.332029 -1.66923 10
      vertex -0.166818 -1.69373 10
    endloop
  endfacet
  facet normal 0.146691 0.989182 0
    outer loop
      vertex -0.332029 -1.66923 10
      vertex -0.166818 -1.69373 0
      vertex -0.332029 -1.66923 0
    endloop
  endfacet
  facet normal -0.146691 0.989182 0
    outer loop
      vertex 0.332029 -1.66923 0
      vertex 0.166818 -1.69373 10
      vertex 0.332029 -1.66923 10
    endloop
  endfacet
  facet normal -0.146691 0.989182 0
    outer loop
      vertex 0.166818 -1.69373 10
      vertex 0.332029 -1.66923 0
      vertex 0.166818 -1.69373 0
    endloop
  endfacet
  facet normal -0.74098 -0.671528 0
    outer loop
      vertex 1.31561 1.07969 0
      vertex 1.20345 1.20345 10
      vertex 1.20345 1.20345 0
    endloop
  endfacet
  facet normal -0.74098 -0.671528 0
    outer loop
      vertex 1.20345 1.20345 10
      vertex 1.31561 1.07969 0
      vertex 1.31561 1.07969 10
    endloop
  endfacet
  facet normal -0.90399 -0.427555 0
    outer loop
      vertex 1.57238 0.651299 0
      vertex 1.50097 0.802283 10
      vertex 1.50097 0.802283 0
    endloop
  endfacet
  facet normal -0.90399 -0.427555 0
    outer loop
      vertex 1.50097 0.802283 10
      vertex 1.57238 0.651299 0
      vertex 1.57238 0.651299 10
    endloop
  endfacet
  facet normal -0.857717 -0.514122 0
    outer loop
      vertex 1.50097 0.802283 0
      vertex 1.4151 0.945541 10
      vertex 1.4151 0.945541 0
    endloop
  endfacet
  facet normal -0.857717 -0.514122 0
    outer loop
      vertex 1.4151 0.945541 10
      vertex 1.50097 0.802283 0
      vertex 1.50097 0.802283 10
    endloop
  endfacet
  facet normal -0.595693 0.803212 0
    outer loop
      vertex 1.07969 -1.31561 0
      vertex 0.945541 -1.4151 10
      vertex 1.07969 -1.31561 10
    endloop
  endfacet
  facet normal -0.595693 0.803212 0
    outer loop
      vertex 0.945541 -1.4151 10
      vertex 1.07969 -1.31561 0
      vertex 0.945541 -1.4151 0
    endloop
  endfacet
  facet normal -0.336852 0.941558 0
    outer loop
      vertex 0.651299 -1.57238 0
      vertex 0.494043 -1.62864 10
      vertex 0.651299 -1.57238 10
    endloop
  endfacet
  facet normal -0.336852 0.941558 0
    outer loop
      vertex 0.494043 -1.62864 10
      vertex 0.651299 -1.57238 0
      vertex 0.494043 -1.62864 0
    endloop
  endfacet
  facet normal -0.998794 -0.0490961 0
    outer loop
      vertex 1.70193 0 0
      vertex 1.69373 0.166818 10
      vertex 1.69373 0.166818 0
    endloop
  endfacet
  facet normal -0.998794 -0.0490961 0
    outer loop
      vertex 1.69373 0.166818 10
      vertex 1.70193 0 0
      vertex 1.70193 0 10
    endloop
  endfacet
  facet normal -0.989182 0.146691 0
    outer loop
      vertex 1.66923 -0.332029 0
      vertex 1.69373 -0.166818 10
      vertex 1.69373 -0.166818 0
    endloop
  endfacet
  facet normal -0.989182 0.146691 0
    outer loop
      vertex 1.69373 -0.166818 10
      vertex 1.66923 -0.332029 0
      vertex 1.66923 -0.332029 10
    endloop
  endfacet
  facet normal -0.998794 0.0490961 0
    outer loop
      vertex 1.69373 -0.166818 0
      vertex 1.70193 0 10
      vertex 1.70193 0 0
    endloop
  endfacet
  facet normal -0.998794 0.0490961 0
    outer loop
      vertex 1.70193 0 10
      vertex 1.69373 -0.166818 0
      vertex 1.69373 -0.166818 10
    endloop
  endfacet
  facet normal -0.970021 -0.243023 0
    outer loop
      vertex 1.66923 0.332029 0
      vertex 1.62864 0.494043 10
      vertex 1.62864 0.494043 0
    endloop
  endfacet
  facet normal -0.970021 -0.243023 0
    outer loop
      vertex 1.62864 0.494043 10
      vertex 1.66923 0.332029 0
      vertex 1.66923 0.332029 10
    endloop
  endfacet
  facet normal 0.941558 -0.336852 0
    outer loop
      vertex -1.62864 0.494043 10
      vertex -1.57238 0.651299 0
      vertex -1.57238 0.651299 10
    endloop
  endfacet
  facet normal 0.941558 -0.336852 0
    outer loop
      vertex -1.57238 0.651299 0
      vertex -1.62864 0.494043 10
      vertex -1.62864 0.494043 0
    endloop
  endfacet
  facet normal 0.671528 -0.74098 0
    outer loop
      vertex -1.20345 1.20345 0
      vertex -1.07969 1.31561 10
      vertex -1.20345 1.20345 10
    endloop
  endfacet
  facet normal 0.671528 -0.74098 0
    outer loop
      vertex -1.07969 1.31561 10
      vertex -1.20345 1.20345 0
      vertex -1.07969 1.31561 0
    endloop
  endfacet
  facet normal 0.146691 -0.989182 0
    outer loop
      vertex -0.332029 1.66923 0
      vertex -0.166818 1.69373 10
      vertex -0.332029 1.66923 10
    endloop
  endfacet
  facet normal 0.146691 -0.989182 0
    outer loop
      vertex -0.166818 1.69373 10
      vertex -0.332029 1.66923 0
      vertex -0.166818 1.69373 0
    endloop
  endfacet
  facet normal 0.857717 -0.514122 0
    outer loop
      vertex -1.50097 0.802283 10
      vertex -1.4151 0.945541 0
      vertex -1.4151 0.945541 10
    endloop
  endfacet
  facet normal 0.857717 -0.514122 0
    outer loop
      vertex -1.4151 0.945541 0
      vertex -1.50097 0.802283 10
      vertex -1.50097 0.802283 0
    endloop
  endfacet
  facet normal 0.998794 0.0490961 0
    outer loop
      vertex -1.69373 -0.166818 10
      vertex -1.70193 0 0
      vertex -1.70193 0 10
    endloop
  endfacet
  facet normal 0.998794 0.0490961 0
    outer loop
      vertex -1.70193 0 0
      vertex -1.69373 -0.166818 10
      vertex -1.69373 -0.166818 0
    endloop
  endfacet
  facet normal 0.243023 0.970021 -0
    outer loop
      vertex -0.332029 -1.66923 0
      vertex -0.494043 -1.62864 10
      vertex -0.332029 -1.66923 10
    endloop
  endfacet
  facet normal 0.243023 0.970021 0
    outer loop
      vertex -0.494043 -1.62864 10
      vertex -0.332029 -1.66923 0
      vertex -0.494043 -1.62864 0
    endloop
  endfacet
  facet normal 0.336852 -0.941558 0
    outer loop
      vertex -0.651299 1.57238 0
      vertex -0.494043 1.62864 10
      vertex -0.651299 1.57238 10
    endloop
  endfacet
  facet normal 0.336852 -0.941558 0
    outer loop
      vertex -0.494043 1.62864 10
      vertex -0.651299 1.57238 0
      vertex -0.494043 1.62864 0
    endloop
  endfacet
  facet normal 0.941558 0.336852 0
    outer loop
      vertex -1.57238 -0.651299 10
      vertex -1.62864 -0.494043 0
      vertex -1.62864 -0.494043 10
    endloop
  endfacet
  facet normal 0.941558 0.336852 0
    outer loop
      vertex -1.62864 -0.494043 0
      vertex -1.57238 -0.651299 10
      vertex -1.57238 -0.651299 0
    endloop
  endfacet
  facet normal -0.90399 0.427555 0
    outer loop
      vertex 1.50097 -0.802283 0
      vertex 1.57238 -0.651299 10
      vertex 1.57238 -0.651299 0
    endloop
  endfacet
  facet normal -0.90399 0.427555 0
    outer loop
      vertex 1.57238 -0.651299 10
      vertex 1.50097 -0.802283 0
      vertex 1.50097 -0.802283 10
    endloop
  endfacet
  facet normal -0.671528 0.74098 0
    outer loop
      vertex 1.20345 -1.20345 0
      vertex 1.07969 -1.31561 10
      vertex 1.20345 -1.20345 10
    endloop
  endfacet
  facet normal -0.671528 0.74098 0
    outer loop
      vertex 1.07969 -1.31561 10
      vertex 1.20345 -1.20345 0
      vertex 1.07969 -1.31561 0
    endloop
  endfacet
  facet normal 0.0490961 0.998794 -0
    outer loop
      vertex 0 -1.70193 0
      vertex -0.166818 -1.69373 10
      vertex 0 -1.70193 10
    endloop
  endfacet
  facet normal 0.0490961 0.998794 0
    outer loop
      vertex -0.166818 -1.69373 10
      vertex 0 -1.70193 0
      vertex -0.166818 -1.69373 0
    endloop
  endfacet
  facet normal -0.595693 -0.803212 0
    outer loop
      vertex 0.945541 1.4151 0
      vertex 1.07969 1.31561 10
      vertex 0.945541 1.4151 10
    endloop
  endfacet
  facet normal -0.595693 -0.803212 -0
    outer loop
      vertex 1.07969 1.31561 10
      vertex 0.945541 1.4151 0
      vertex 1.07969 1.31561 0
    endloop
  endfacet
  facet normal -0.336852 -0.941558 0
    outer loop
      vertex 0.494043 1.62864 0
      vertex 0.651299 1.57238 10
      vertex 0.494043 1.62864 10
    endloop
  endfacet
  facet normal -0.336852 -0.941558 -0
    outer loop
      vertex 0.651299 1.57238 10
      vertex 0.494043 1.62864 0
      vertex 0.651299 1.57238 0
    endloop
  endfacet
  facet normal -0.803212 -0.595693 0
    outer loop
      vertex 1.4151 0.945541 0
      vertex 1.31561 1.07969 10
      vertex 1.31561 1.07969 0
    endloop
  endfacet
  facet normal -0.803212 -0.595693 0
    outer loop
      vertex 1.31561 1.07969 10
      vertex 1.4151 0.945541 0
      vertex 1.4151 0.945541 10
    endloop
  endfacet
  facet normal 0.514122 0.857717 -0
    outer loop
      vertex -0.802283 -1.50097 0
      vertex -0.945541 -1.4151 10
      vertex -0.802283 -1.50097 10
    endloop
  endfacet
  facet normal 0.514122 0.857717 0
    outer loop
      vertex -0.945541 -1.4151 10
      vertex -0.802283 -1.50097 0
      vertex -0.945541 -1.4151 0
    endloop
  endfacet
  facet normal -0.427555 0.90399 0
    outer loop
      vertex 0.802283 -1.50097 0
      vertex 0.651299 -1.57238 10
      vertex 0.802283 -1.50097 10
    endloop
  endfacet
  facet normal -0.427555 0.90399 0
    outer loop
      vertex 0.651299 -1.57238 10
      vertex 0.802283 -1.50097 0
      vertex 0.651299 -1.57238 0
    endloop
  endfacet
  facet normal 0.970021 -0.243023 0
    outer loop
      vertex -1.66923 0.332029 10
      vertex -1.62864 0.494043 0
      vertex -1.62864 0.494043 10
    endloop
  endfacet
  facet normal 0.970021 -0.243023 0
    outer loop
      vertex -1.62864 0.494043 0
      vertex -1.66923 0.332029 10
      vertex -1.66923 0.332029 0
    endloop
  endfacet
  facet normal -0.671528 -0.74098 0
    outer loop
      vertex 1.07969 1.31561 0
      vertex 1.20345 1.20345 10
      vertex 1.07969 1.31561 10
    endloop
  endfacet
  facet normal -0.671528 -0.74098 -0
    outer loop
      vertex 1.20345 1.20345 10
      vertex 1.07969 1.31561 0
      vertex 1.20345 1.20345 0
    endloop
  endfacet
  facet normal 0.595693 -0.803212 0
    outer loop
      vertex -1.07969 1.31561 0
      vertex -0.945541 1.4151 10
      vertex -1.07969 1.31561 10
    endloop
  endfacet
  facet normal 0.595693 -0.803212 0
    outer loop
      vertex -0.945541 1.4151 10
      vertex -1.07969 1.31561 0
      vertex -0.945541 1.4151 0
    endloop
  endfacet
  facet normal -0.514122 -0.857717 0
    outer loop
      vertex 0.802283 1.50097 0
      vertex 0.945541 1.4151 10
      vertex 0.802283 1.50097 10
    endloop
  endfacet
  facet normal -0.514122 -0.857717 -0
    outer loop
      vertex 0.945541 1.4151 10
      vertex 0.802283 1.50097 0
      vertex 0.945541 1.4151 0
    endloop
  endfacet
  facet normal -0.243023 0.970021 0
    outer loop
      vertex 0.494043 -1.62864 0
      vertex 0.332029 -1.66923 10
      vertex 0.494043 -1.62864 10
    endloop
  endfacet
  facet normal -0.243023 0.970021 0
    outer loop
      vertex 0.332029 -1.66923 10
      vertex 0.494043 -1.62864 0
      vertex 0.332029 -1.66923 0
    endloop
  endfacet
  facet normal 0.998794 -0.0490961 0
    outer loop
      vertex -1.70193 0 10
      vertex -1.69373 0.166818 0
      vertex -1.69373 0.166818 10
    endloop
  endfacet
  facet normal 0.998794 -0.0490961 0
    outer loop
      vertex -1.69373 0.166818 0
      vertex -1.70193 0 10
      vertex -1.70193 0 0
    endloop
  endfacet
  facet normal 0.74098 0.671528 0
    outer loop
      vertex -1.20345 -1.20345 10
      vertex -1.31561 -1.07969 0
      vertex -1.31561 -1.07969 10
    endloop
  endfacet
  facet normal 0.74098 0.671528 0
    outer loop
      vertex -1.31561 -1.07969 0
      vertex -1.20345 -1.20345 10
      vertex -1.20345 -1.20345 0
    endloop
  endfacet
  facet normal 0.803212 0.595693 0
    outer loop
      vertex -1.31561 -1.07969 10
      vertex -1.4151 -0.945541 0
      vertex -1.4151 -0.945541 10
    endloop
  endfacet
  facet normal 0.803212 0.595693 0
    outer loop
      vertex -1.4151 -0.945541 0
      vertex -1.31561 -1.07969 10
      vertex -1.31561 -1.07969 0
    endloop
  endfacet
  facet normal 0.243023 -0.970021 0
    outer loop
      vertex -0.494043 1.62864 0
      vertex -0.332029 1.66923 10
      vertex -0.494043 1.62864 10
    endloop
  endfacet
  facet normal 0.243023 -0.970021 0
    outer loop
      vertex -0.332029 1.66923 10
      vertex -0.494043 1.62864 0
      vertex -0.332029 1.66923 0
    endloop
  endfacet
  facet normal -0.970021 0.243023 0
    outer loop
      vertex 1.62864 -0.494043 0
      vertex 1.66923 -0.332029 10
      vertex 1.66923 -0.332029 0
    endloop
  endfacet
  facet normal -0.970021 0.243023 0
    outer loop
      vertex 1.66923 -0.332029 10
      vertex 1.62864 -0.494043 0
      vertex 1.62864 -0.494043 10
    endloop
  endfacet
  facet normal -0.0490961 0.998794 0
    outer loop
      vertex 0.166818 -1.69373 0
      vertex 0 -1.70193 10
      vertex 0.166818 -1.69373 10
    endloop
  endfacet
  facet normal -0.0490961 0.998794 0
    outer loop
      vertex 0 -1.70193 10
      vertex 0.166818 -1.69373 0
      vertex 0 -1.70193 0
    endloop
  endfacet
  facet normal 0.989182 0.146691 0
    outer loop
      vertex -1.66923 -0.332029 10
      vertex -1.69373 -0.166818 0
      vertex -1.69373 -0.166818 10
    endloop
  endfacet
  facet normal 0.989182 0.146691 0
    outer loop
      vertex -1.69373 -0.166818 0
      vertex -1.66923 -0.332029 10
      vertex -1.66923 -0.332029 0
    endloop
  endfacet
  facet normal -0.803212 0.595693 0
    outer loop
      vertex 1.31561 -1.07969 0
      vertex 1.4151 -0.945541 10
      vertex 1.4151 -0.945541 0
    endloop
  endfacet
  facet normal -0.803212 0.595693 0
    outer loop
      vertex 1.4151 -0.945541 10
      vertex 1.31561 -1.07969 0
      vertex 1.31561 -1.07969 10
    endloop
  endfacet
  facet normal -0.0490961 -0.998794 0
    outer loop
      vertex 0 1.70193 0
      vertex 0.166818 1.69373 10
      vertex 0 1.70193 10
    endloop
  endfacet
  facet normal -0.0490961 -0.998794 -0
    outer loop
      vertex 0.166818 1.69373 10
      vertex 0 1.70193 0
      vertex 0.166818 1.69373 0
    endloop
  endfacet
  facet normal 0.803212 -0.595693 0
    outer loop
      vertex -1.4151 0.945541 10
      vertex -1.31561 1.07969 0
      vertex -1.31561 1.07969 10
    endloop
  endfacet
  facet normal 0.803212 -0.595693 0
    outer loop
      vertex -1.31561 1.07969 0
      vertex -1.4151 0.945541 10
      vertex -1.4151 0.945541 0
    endloop
  endfacet
  facet normal -0.146691 -0.989182 0
    outer loop
      vertex 0.166818 1.69373 0
      vertex 0.332029 1.66923 10
      vertex 0.166818 1.69373 10
    endloop
  endfacet
  facet normal -0.146691 -0.989182 -0
    outer loop
      vertex 0.332029 1.66923 10
      vertex 0.166818 1.69373 0
      vertex 0.332029 1.66923 0
    endloop
  endfacet
  facet normal -0.243023 -0.970021 0
    outer loop
      vertex 0.332029 1.66923 0
      vertex 0.494043 1.62864 10
      vertex 0.332029 1.66923 10
    endloop
  endfacet
  facet normal -0.243023 -0.970021 -0
    outer loop
      vertex 0.494043 1.62864 10
      vertex 0.332029 1.66923 0
      vertex 0.494043 1.62864 0
    endloop
  endfacet
  facet normal 0.595693 0.803212 -0
    outer loop
      vertex -0.945541 -1.4151 0
      vertex -1.07969 -1.31561 10
      vertex -0.945541 -1.4151 10
    endloop
  endfacet
  facet normal 0.595693 0.803212 0
    outer loop
      vertex -1.07969 -1.31561 10
      vertex -0.945541 -1.4151 0
      vertex -1.07969 -1.31561 0
    endloop
  endfacet
  facet normal 0.0490961 -0.998794 0
    outer loop
      vertex -0.166818 1.69373 0
      vertex 0 1.70193 10
      vertex -0.166818 1.69373 10
    endloop
  endfacet
  facet normal 0.0490961 -0.998794 0
    outer loop
      vertex 0 1.70193 10
      vertex -0.166818 1.69373 0
      vertex 0 1.70193 0
    endloop
  endfacet
  facet normal 0.514122 -0.857717 0
    outer loop
      vertex -0.945541 1.4151 0
      vertex -0.802283 1.50097 10
      vertex -0.945541 1.4151 10
    endloop
  endfacet
  facet normal 0.514122 -0.857717 0
    outer loop
      vertex -0.802283 1.50097 10
      vertex -0.945541 1.4151 0
      vertex -0.802283 1.50097 0
    endloop
  endfacet
  facet normal 0.427555 -0.90399 0
    outer loop
      vertex -0.802283 1.50097 0
      vertex -0.651299 1.57238 10
      vertex -0.802283 1.50097 10
    endloop
  endfacet
  facet normal 0.427555 -0.90399 0
    outer loop
      vertex -0.651299 1.57238 10
      vertex -0.802283 1.50097 0
      vertex -0.651299 1.57238 0
    endloop
  endfacet
  facet normal 0.671528 0.74098 -0
    outer loop
      vertex -1.07969 -1.31561 0
      vertex -1.20345 -1.20345 10
      vertex -1.07969 -1.31561 10
    endloop
  endfacet
  facet normal 0.671528 0.74098 0
    outer loop
      vertex -1.20345 -1.20345 10
      vertex -1.07969 -1.31561 0
      vertex -1.20345 -1.20345 0
    endloop
  endfacet
  facet normal 0.427555 0.90399 -0
    outer loop
      vertex -0.651299 -1.57238 0
      vertex -0.802283 -1.50097 10
      vertex -0.651299 -1.57238 10
    endloop
  endfacet
  facet normal 0.427555 0.90399 0
    outer loop
      vertex -0.802283 -1.50097 10
      vertex -0.651299 -1.57238 0
      vertex -0.802283 -1.50097 0
    endloop
  endfacet
  facet normal -0.941558 0.336852 0
    outer loop
      vertex 1.57238 -0.651299 0
      vertex 1.62864 -0.494043 10
      vertex 1.62864 -0.494043 0
    endloop
  endfacet
  facet normal -0.941558 0.336852 0
    outer loop
      vertex 1.62864 -0.494043 10
      vertex 1.57238 -0.651299 0
      vertex 1.57238 -0.651299 10
    endloop
  endfacet
  facet normal -0.74098 0.671528 0
    outer loop
      vertex 1.20345 -1.20345 0
      vertex 1.31561 -1.07969 10
      vertex 1.31561 -1.07969 0
    endloop
  endfacet
  facet normal -0.74098 0.671528 0
    outer loop
      vertex 1.31561 -1.07969 10
      vertex 1.20345 -1.20345 0
      vertex 1.20345 -1.20345 10
    endloop
  endfacet
  facet normal 0.74098 -0.671528 0
    outer loop
      vertex -1.31561 1.07969 10
      vertex -1.20345 1.20345 0
      vertex -1.20345 1.20345 10
    endloop
  endfacet
  facet normal 0.74098 -0.671528 0
    outer loop
      vertex -1.20345 1.20345 0
      vertex -1.31561 1.07969 10
      vertex -1.31561 1.07969 0
    endloop
  endfacet
  facet normal 0.336852 0.941558 -0
    outer loop
      vertex -0.494043 -1.62864 0
      vertex -0.651299 -1.57238 10
      vertex -0.494043 -1.62864 10
    endloop
  endfacet
  facet normal 0.336852 0.941558 0
    outer loop
      vertex -0.651299 -1.57238 10
      vertex -0.494043 -1.62864 0
      vertex -0.651299 -1.57238 0
    endloop
  endfacet
endsolid OpenSCAD_Model
